<?xml version="1.0" encoding="UTF-8"?>
<svg xmlns="http://www.w3.org/2000/svg" version="1.1" width="300" height="300" viewBox="0 0 300 300"><rect x="0" y="0" width="300" height="300" fill="#ffffff"/><g transform="scale(8.108)"><g transform="translate(0,0)"><path fill-rule="evenodd" d="M9 0L9 1L8 1L8 2L9 2L9 3L8 3L8 4L10 4L10 7L11 7L11 4L12 4L12 5L13 5L13 6L12 6L12 9L13 9L13 8L14 8L14 9L15 9L15 10L17 10L17 9L18 9L18 8L17 8L17 9L16 9L16 7L17 7L17 5L16 5L16 4L18 4L18 5L21 5L21 6L20 6L20 7L19 7L19 6L18 6L18 7L19 7L19 10L18 10L18 11L19 11L19 10L20 10L20 12L22 12L22 10L25 10L25 11L23 11L23 12L25 12L25 13L19 13L19 14L20 14L20 16L19 16L19 17L18 17L18 16L16 16L16 13L12 13L12 11L13 11L13 10L11 10L11 11L10 11L10 10L9 10L9 11L8 11L8 10L6 10L6 11L4 11L4 10L3 10L3 9L5 9L5 8L0 8L0 10L1 10L1 11L0 11L0 12L1 12L1 13L2 13L2 14L1 14L1 15L0 15L0 19L1 19L1 17L2 17L2 16L6 16L6 17L5 17L5 18L6 18L6 19L8 19L8 21L7 21L7 20L5 20L5 19L3 19L3 21L2 21L2 20L1 20L1 21L2 21L2 22L1 22L1 24L0 24L0 29L1 29L1 26L3 26L3 27L2 27L2 28L3 28L3 27L7 27L7 28L4 28L4 29L8 29L8 31L9 31L9 32L8 32L8 37L12 37L12 35L13 35L13 34L11 34L11 35L10 35L10 34L9 34L9 32L10 32L10 31L9 31L9 30L10 30L10 29L12 29L12 30L13 30L13 31L12 31L12 33L13 33L13 32L14 32L14 33L15 33L15 32L16 32L16 33L18 33L18 35L19 35L19 37L20 37L20 36L22 36L22 37L23 37L23 36L22 36L22 35L23 35L23 34L25 34L25 35L24 35L24 37L27 37L27 35L28 35L28 36L29 36L29 34L30 34L30 37L33 37L33 36L34 36L34 37L37 37L37 32L36 32L36 31L37 31L37 30L36 30L36 29L37 29L37 26L36 26L36 25L37 25L37 22L35 22L35 20L37 20L37 18L36 18L36 17L35 17L35 16L33 16L33 15L34 15L34 13L36 13L36 11L37 11L37 10L36 10L36 11L35 11L35 9L36 9L36 8L35 8L35 9L34 9L34 8L33 8L33 9L34 9L34 11L35 11L35 12L34 12L34 13L33 13L33 12L31 12L31 11L33 11L33 10L31 10L31 11L30 11L30 13L28 13L28 14L27 14L27 15L26 15L26 16L24 16L24 17L20 17L20 16L23 16L23 14L25 14L25 13L27 13L27 12L25 12L25 11L26 11L26 10L27 10L27 11L28 11L28 12L29 12L29 11L28 11L28 10L27 10L27 8L28 8L28 9L29 9L29 10L30 10L30 8L29 8L29 2L28 2L28 1L29 1L29 0L28 0L28 1L27 1L27 2L26 2L26 3L25 3L25 4L21 4L21 3L23 3L23 2L22 2L22 0L20 0L20 1L21 1L21 2L20 2L20 4L18 4L18 3L19 3L19 1L17 1L17 0L15 0L15 1L17 1L17 2L16 2L16 4L12 4L12 2L13 2L13 1L11 1L11 2L10 2L10 0ZM23 0L23 1L24 1L24 0ZM25 0L25 1L26 1L26 0ZM14 2L14 3L15 3L15 2ZM17 2L17 3L18 3L18 2ZM27 2L27 3L28 3L28 2ZM10 3L10 4L11 4L11 3ZM26 4L26 6L25 6L25 5L23 5L23 8L20 8L20 9L21 9L21 10L22 10L22 9L25 9L25 10L26 10L26 9L25 9L25 8L26 8L26 6L27 6L27 7L28 7L28 6L27 6L27 4ZM8 5L8 7L9 7L9 5ZM13 6L13 7L14 7L14 8L15 8L15 7L16 7L16 6L15 6L15 7L14 7L14 6ZM21 6L21 7L22 7L22 6ZM24 6L24 8L25 8L25 6ZM6 8L6 9L11 9L11 8ZM31 8L31 9L32 9L32 8ZM1 9L1 10L2 10L2 9ZM1 11L1 12L2 12L2 11ZM3 11L3 12L4 12L4 11ZM6 11L6 12L7 12L7 11ZM14 11L14 12L15 12L15 11ZM16 11L16 12L17 12L17 13L18 13L18 12L17 12L17 11ZM8 12L8 14L9 14L9 12ZM4 13L4 14L2 14L2 15L1 15L1 16L2 16L2 15L4 15L4 14L5 14L5 15L6 15L6 16L7 16L7 17L6 17L6 18L8 18L8 19L9 19L9 20L11 20L11 18L13 18L13 19L12 19L12 21L11 21L11 22L10 22L10 23L6 23L6 24L9 24L9 25L6 25L6 26L8 26L8 28L9 28L9 29L10 29L10 28L11 28L11 26L13 26L13 27L12 27L12 29L15 29L15 30L18 30L18 31L17 31L17 32L18 32L18 33L19 33L19 32L20 32L20 28L21 28L21 29L22 29L22 30L21 30L21 31L22 31L22 32L21 32L21 33L20 33L20 34L19 34L19 35L21 35L21 33L22 33L22 32L23 32L23 33L25 33L25 34L26 34L26 33L27 33L27 34L29 34L29 33L27 33L27 32L28 32L28 30L27 30L27 31L25 31L25 30L26 30L26 29L27 29L27 28L29 28L29 27L30 27L30 28L32 28L32 27L33 27L33 29L34 29L34 31L33 31L33 32L35 32L35 33L34 33L34 34L31 34L31 35L32 35L32 36L33 36L33 35L34 35L34 36L36 36L36 35L35 35L35 33L36 33L36 32L35 32L35 29L34 29L34 28L35 28L35 27L34 27L34 24L35 24L35 25L36 25L36 23L35 23L35 22L33 22L33 21L34 21L34 20L35 20L35 19L36 19L36 18L35 18L35 17L34 17L34 18L33 18L33 17L30 17L30 16L32 16L32 15L33 15L33 13L30 13L30 14L32 14L32 15L30 15L30 16L29 16L29 14L28 14L28 16L29 16L29 17L30 17L30 18L28 18L28 17L26 17L26 18L25 18L25 17L24 17L24 18L23 18L23 19L24 19L24 18L25 18L25 20L26 20L26 21L24 21L24 20L21 20L21 19L20 19L20 18L18 18L18 17L14 17L14 16L15 16L15 15L14 15L14 16L13 16L13 17L12 17L12 15L13 15L13 14L12 14L12 13L10 13L10 15L6 15L6 14L7 14L7 13ZM36 14L36 15L37 15L37 14ZM9 16L9 19L10 19L10 16ZM3 17L3 18L4 18L4 17ZM15 18L15 19L14 19L14 20L15 20L15 21L12 21L12 22L13 22L13 23L12 23L12 25L13 25L13 24L14 24L14 25L18 25L18 24L16 24L16 22L15 22L15 21L18 21L18 20L16 20L16 18ZM26 18L26 20L27 20L27 21L26 21L26 23L27 23L27 24L30 24L30 25L28 25L28 26L27 26L27 25L26 25L26 24L25 24L25 23L24 23L24 25L23 25L23 22L24 22L24 21L21 21L21 20L19 20L19 22L17 22L17 23L19 23L19 22L20 22L20 23L21 23L21 24L22 24L22 25L19 25L19 26L22 26L22 27L21 27L21 28L22 28L22 27L23 27L23 28L24 28L24 27L25 27L25 26L27 26L27 27L28 27L28 26L30 26L30 27L31 27L31 26L30 26L30 25L33 25L33 24L34 24L34 23L33 23L33 22L32 22L32 23L33 23L33 24L30 24L30 23L31 23L31 22L30 22L30 21L33 21L33 20L30 20L30 19L31 19L31 18L30 18L30 19L28 19L28 18ZM27 19L27 20L28 20L28 21L27 21L27 22L28 22L28 23L29 23L29 21L30 21L30 20L28 20L28 19ZM4 20L4 22L3 22L3 23L2 23L2 24L1 24L1 25L3 25L3 26L4 26L4 25L5 25L5 24L4 24L4 25L3 25L3 23L4 23L4 22L5 22L5 20ZM6 21L6 22L7 22L7 21ZM21 22L21 23L22 23L22 22ZM10 23L10 25L11 25L11 23ZM14 23L14 24L15 24L15 23ZM22 25L22 26L23 26L23 27L24 27L24 26L25 26L25 25L24 25L24 26L23 26L23 25ZM9 26L9 28L10 28L10 26ZM15 26L15 27L14 27L14 28L15 28L15 29L18 29L18 30L19 30L19 27L18 27L18 28L17 28L17 26ZM25 28L25 29L23 29L23 30L22 30L22 31L23 31L23 30L25 30L25 29L26 29L26 28ZM29 29L29 32L32 32L32 29ZM30 30L30 31L31 31L31 30ZM14 31L14 32L15 32L15 31ZM18 31L18 32L19 32L19 31ZM24 31L24 32L25 32L25 33L26 33L26 32L25 32L25 31ZM15 34L15 35L14 35L14 36L17 36L17 37L18 37L18 36L17 36L17 34ZM25 35L25 36L26 36L26 35ZM0 0L0 7L7 7L7 0ZM1 1L1 6L6 6L6 1ZM2 2L2 5L5 5L5 2ZM30 0L30 7L37 7L37 0ZM31 1L31 6L36 6L36 1ZM32 2L32 5L35 5L35 2ZM0 30L0 37L7 37L7 30ZM1 31L1 36L6 36L6 31ZM2 32L2 35L5 35L5 32Z" fill="#000000"/></g></g></svg>
