<?xml version="1.0" encoding="UTF-8"?>
<svg xmlns="http://www.w3.org/2000/svg" version="1.1" width="300" height="300" viewBox="0 0 300 300"><rect x="0" y="0" width="300" height="300" fill="#ffffff"/><g transform="scale(8.108)"><g transform="translate(0,0)"><path fill-rule="evenodd" d="M10 0L10 2L11 2L11 0ZM12 0L12 1L13 1L13 2L12 2L12 4L13 4L13 3L14 3L14 4L15 4L15 5L17 5L17 4L18 4L18 5L21 5L21 6L20 6L20 7L19 7L19 6L18 6L18 7L19 7L19 10L18 10L18 11L19 11L19 10L20 10L20 12L23 12L23 11L22 11L22 9L23 9L23 10L25 10L25 11L24 11L24 12L25 12L25 13L19 13L19 14L20 14L20 16L19 16L19 17L18 17L18 16L16 16L16 14L15 14L15 15L14 15L14 16L15 16L15 17L12 17L12 15L13 15L13 14L11 14L11 12L10 12L10 13L9 13L9 11L10 11L10 10L11 10L11 9L12 9L12 10L13 10L13 11L12 11L12 13L13 13L13 12L14 12L14 13L18 13L18 12L16 12L16 9L12 9L12 7L13 7L13 5L11 5L11 6L10 6L10 4L11 4L11 3L8 3L8 4L9 4L9 5L8 5L8 7L9 7L9 8L6 8L6 9L10 9L10 10L8 10L8 11L7 11L7 10L4 10L4 9L5 9L5 8L0 8L0 9L1 9L1 10L2 10L2 11L0 11L0 14L1 14L1 15L3 15L3 16L5 16L5 17L4 17L4 18L2 18L2 20L0 20L0 22L1 22L1 23L0 23L0 24L1 24L1 25L0 25L0 29L1 29L1 26L2 26L2 27L3 27L3 28L5 28L5 29L7 29L7 28L5 28L5 27L7 27L7 26L6 26L6 25L7 25L7 24L8 24L8 25L10 25L10 26L9 26L9 27L10 27L10 28L8 28L8 31L9 31L9 32L8 32L8 37L11 37L11 36L10 36L10 35L11 35L11 33L12 33L12 34L13 34L13 35L12 35L12 37L13 37L13 36L14 36L14 37L15 37L15 36L17 36L17 37L18 37L18 36L17 36L17 34L15 34L15 33L12 33L12 31L13 31L13 30L11 30L11 32L10 32L10 31L9 31L9 29L10 29L10 28L11 28L11 27L10 27L10 26L11 26L11 25L12 25L12 26L13 26L13 27L12 27L12 29L13 29L13 28L14 28L14 29L18 29L18 30L15 30L15 31L14 31L14 32L16 32L16 33L18 33L18 35L19 35L19 37L20 37L20 36L22 36L22 37L23 37L23 36L22 36L22 35L23 35L23 34L24 34L24 35L25 35L25 33L26 33L26 36L24 36L24 37L27 37L27 35L28 35L28 36L29 36L29 34L30 34L30 37L33 37L33 36L34 36L34 37L37 37L37 30L36 30L36 29L37 29L37 26L36 26L36 25L37 25L37 22L35 22L35 20L37 20L37 18L36 18L36 17L35 17L35 16L33 16L33 15L34 15L34 13L36 13L36 11L37 11L37 10L36 10L36 11L35 11L35 9L36 9L36 8L35 8L35 9L34 9L34 8L33 8L33 9L34 9L34 11L35 11L35 12L34 12L34 13L33 13L33 12L31 12L31 11L33 11L33 10L31 10L31 11L30 11L30 13L28 13L28 14L27 14L27 15L26 15L26 16L25 16L25 15L21 15L21 14L25 14L25 13L27 13L27 12L25 12L25 11L26 11L26 10L27 10L27 11L28 11L28 12L29 12L29 11L28 11L28 10L27 10L27 8L28 8L28 9L29 9L29 10L30 10L30 8L29 8L29 2L28 2L28 1L29 1L29 0L28 0L28 1L27 1L27 2L26 2L26 3L25 3L25 4L21 4L21 3L22 3L22 2L23 2L23 3L24 3L24 2L25 2L25 1L26 1L26 0L25 0L25 1L24 1L24 0L23 0L23 1L22 1L22 0L20 0L20 1L22 1L22 2L20 2L20 4L18 4L18 3L19 3L19 1L16 1L16 0ZM8 1L8 2L9 2L9 1ZM23 1L23 2L24 2L24 1ZM14 2L14 3L15 3L15 2ZM16 2L16 4L17 4L17 3L18 3L18 2ZM27 2L27 3L28 3L28 2ZM26 4L26 6L25 6L25 8L24 8L24 5L23 5L23 7L22 7L22 6L21 6L21 7L22 7L22 8L20 8L20 9L22 9L22 8L23 8L23 9L25 9L25 10L26 10L26 9L25 9L25 8L26 8L26 6L27 6L27 7L28 7L28 6L27 6L27 4ZM9 6L9 7L10 7L10 6ZM11 6L11 7L12 7L12 6ZM14 6L14 8L15 8L15 6ZM16 6L16 8L17 8L17 9L18 9L18 8L17 8L17 6ZM10 8L10 9L11 9L11 8ZM31 8L31 9L32 9L32 8ZM3 10L3 11L4 11L4 12L5 12L5 11L4 11L4 10ZM6 11L6 12L7 12L7 11ZM14 11L14 12L15 12L15 11ZM1 12L1 14L2 14L2 12ZM3 13L3 15L4 15L4 14L5 14L5 16L7 16L7 17L6 17L6 18L8 18L8 19L6 19L6 20L5 20L5 18L4 18L4 19L3 19L3 20L2 20L2 21L1 21L1 22L2 22L2 23L1 23L1 24L2 24L2 26L3 26L3 27L4 27L4 26L5 26L5 24L7 24L7 23L8 23L8 24L11 24L11 23L9 23L9 20L8 20L8 19L11 19L11 20L10 20L10 22L13 22L13 23L12 23L12 25L15 25L15 26L17 26L17 27L16 27L16 28L18 28L18 27L19 27L19 30L18 30L18 31L17 31L17 32L18 32L18 33L19 33L19 32L20 32L20 28L21 28L21 29L22 29L22 30L21 30L21 31L22 31L22 32L21 32L21 33L20 33L20 34L19 34L19 35L21 35L21 33L22 33L22 32L23 32L23 33L25 33L25 32L26 32L26 33L27 33L27 34L29 34L29 33L27 33L27 32L28 32L28 30L26 30L26 29L27 29L27 28L29 28L29 27L30 27L30 28L32 28L32 27L33 27L33 29L34 29L34 31L33 31L33 32L36 32L36 31L35 31L35 29L34 29L34 28L35 28L35 27L34 27L34 24L35 24L35 25L36 25L36 23L35 23L35 22L33 22L33 21L34 21L34 20L35 20L35 19L36 19L36 18L35 18L35 17L34 17L34 18L33 18L33 17L30 17L30 16L32 16L32 15L33 15L33 13L30 13L30 14L32 14L32 15L30 15L30 16L29 16L29 14L28 14L28 16L29 16L29 17L30 17L30 18L28 18L28 17L26 17L26 18L25 18L25 19L24 19L24 18L23 18L23 19L22 19L22 18L21 18L21 19L20 19L20 18L18 18L18 17L15 17L15 18L16 18L16 20L18 20L18 21L14 21L14 20L15 20L15 19L14 19L14 20L13 20L13 21L12 21L12 19L13 19L13 18L12 18L12 17L10 17L10 16L11 16L11 15L10 15L10 14L8 14L8 13ZM6 14L6 15L7 15L7 16L8 16L8 18L9 18L9 16L10 16L10 15L7 15L7 14ZM36 14L36 15L37 15L37 14ZM1 16L1 17L2 17L2 16ZM20 16L20 17L25 17L25 16ZM0 18L0 19L1 19L1 18ZM26 18L26 20L24 20L24 19L23 19L23 20L24 20L24 21L21 21L21 20L22 20L22 19L21 19L21 20L19 20L19 22L17 22L17 23L19 23L19 22L20 22L20 23L21 23L21 24L23 24L23 23L21 23L21 22L24 22L24 21L25 21L25 22L27 22L27 24L30 24L30 25L28 25L28 26L27 26L27 25L26 25L26 24L25 24L25 25L19 25L19 26L22 26L22 27L21 27L21 28L22 28L22 27L23 27L23 26L25 26L25 25L26 25L26 28L25 28L25 27L24 27L24 28L23 28L23 30L22 30L22 31L23 31L23 30L24 30L24 31L25 31L25 29L26 29L26 28L27 28L27 27L28 27L28 26L30 26L30 27L31 27L31 26L30 26L30 25L33 25L33 24L34 24L34 23L33 23L33 22L32 22L32 23L33 23L33 24L30 24L30 23L31 23L31 22L30 22L30 21L33 21L33 20L30 20L30 19L31 19L31 18L30 18L30 19L28 19L28 18ZM27 19L27 20L26 20L26 21L27 21L27 22L28 22L28 23L29 23L29 21L30 21L30 20L28 20L28 19ZM3 20L3 22L5 22L5 21L4 21L4 20ZM6 20L6 21L8 21L8 20ZM27 20L27 21L28 21L28 20ZM6 22L6 23L7 23L7 22ZM15 22L15 23L14 23L14 24L15 24L15 25L18 25L18 24L16 24L16 22ZM2 23L2 24L3 24L3 26L4 26L4 24L5 24L5 23ZM14 27L14 28L15 28L15 27ZM24 28L24 29L25 29L25 28ZM29 29L29 32L32 32L32 29ZM30 30L30 31L31 31L31 30ZM18 31L18 32L19 32L19 31ZM26 31L26 32L27 32L27 31ZM9 32L9 33L10 33L10 32ZM34 33L34 34L31 34L31 35L32 35L32 36L33 36L33 35L34 35L34 36L36 36L36 35L35 35L35 33ZM14 35L14 36L15 36L15 35ZM0 0L0 7L7 7L7 0ZM1 1L1 6L6 6L6 1ZM2 2L2 5L5 5L5 2ZM30 0L30 7L37 7L37 0ZM31 1L31 6L36 6L36 1ZM32 2L32 5L35 5L35 2ZM0 30L0 37L7 37L7 30ZM1 31L1 36L6 36L6 31ZM2 32L2 35L5 35L5 32Z" fill="#000000"/></g></g></svg>
