<?xml version="1.0" encoding="UTF-8"?>
<svg xmlns="http://www.w3.org/2000/svg" version="1.1" width="300" height="300" viewBox="0 0 300 300"><rect x="0" y="0" width="300" height="300" fill="#ffffff"/><g transform="scale(8.108)"><g transform="translate(0,0)"><path fill-rule="evenodd" d="M10 0L10 2L11 2L11 0ZM12 0L12 1L13 1L13 2L12 2L12 4L13 4L13 3L14 3L14 4L15 4L15 5L17 5L17 4L18 4L18 5L21 5L21 6L20 6L20 7L19 7L19 6L18 6L18 7L19 7L19 10L18 10L18 11L19 11L19 10L20 10L20 12L22 12L22 13L19 13L19 14L20 14L20 16L19 16L19 17L18 17L18 16L17 16L17 15L16 15L16 16L17 16L17 17L18 17L18 18L20 18L20 19L21 19L21 20L19 20L19 22L17 22L17 23L19 23L19 22L20 22L20 23L21 23L21 24L24 24L24 25L19 25L19 26L22 26L22 27L21 27L21 28L20 28L20 32L19 32L19 31L18 31L18 30L19 30L19 27L18 27L18 28L17 28L17 26L15 26L15 25L18 25L18 24L16 24L16 22L15 22L15 23L14 23L14 24L15 24L15 25L12 25L12 23L13 23L13 22L11 22L11 24L10 24L10 22L9 22L9 21L7 21L7 20L11 20L11 19L7 19L7 18L10 18L10 17L7 17L7 16L4 16L4 14L5 14L5 15L9 15L9 14L10 14L10 16L11 16L11 17L12 17L12 18L13 18L13 19L12 19L12 21L13 21L13 20L14 20L14 21L18 21L18 20L16 20L16 17L12 17L12 15L13 15L13 14L11 14L11 12L9 12L9 14L8 14L8 13L7 13L7 12L3 12L3 11L2 11L2 10L3 10L3 9L4 9L4 10L5 10L5 11L10 11L10 10L11 10L11 9L12 9L12 10L13 10L13 11L12 11L12 13L13 13L13 12L14 12L14 13L15 13L15 14L17 14L17 13L18 13L18 12L17 12L17 13L16 13L16 11L17 11L17 10L16 10L16 9L18 9L18 8L17 8L17 6L16 6L16 9L12 9L12 7L13 7L13 5L11 5L11 6L10 6L10 4L11 4L11 3L8 3L8 4L9 4L9 5L8 5L8 7L9 7L9 8L6 8L6 9L8 9L8 10L5 10L5 8L0 8L0 10L1 10L1 11L2 11L2 12L3 12L3 13L2 13L2 14L3 14L3 15L2 15L2 16L1 16L1 14L0 14L0 16L1 16L1 17L0 17L0 18L1 18L1 19L0 19L0 21L1 21L1 20L2 20L2 21L4 21L4 22L5 22L5 21L7 21L7 22L6 22L6 23L5 23L5 24L3 24L3 22L0 22L0 29L1 29L1 26L3 26L3 27L2 27L2 29L4 29L4 28L5 28L5 29L8 29L8 31L9 31L9 30L10 30L10 29L11 29L11 27L10 27L10 26L11 26L11 25L12 25L12 26L13 26L13 27L12 27L12 29L13 29L13 28L14 28L14 29L18 29L18 30L15 30L15 31L14 31L14 32L16 32L16 33L18 33L18 35L19 35L19 37L20 37L20 36L22 36L22 37L23 37L23 36L22 36L22 35L23 35L23 34L24 34L24 36L25 36L25 37L26 37L26 36L25 36L25 35L26 35L26 34L27 34L27 35L28 35L28 36L29 36L29 34L30 34L30 37L33 37L33 36L34 36L34 37L37 37L37 32L36 32L36 33L35 33L35 32L33 32L33 31L34 31L34 29L35 29L35 31L37 31L37 30L36 30L36 29L37 29L37 26L36 26L36 25L37 25L37 22L35 22L35 20L37 20L37 18L36 18L36 17L35 17L35 16L33 16L33 15L34 15L34 13L36 13L36 11L37 11L37 10L36 10L36 11L35 11L35 9L36 9L36 8L35 8L35 9L34 9L34 8L33 8L33 9L34 9L34 11L35 11L35 12L34 12L34 13L33 13L33 12L31 12L31 11L33 11L33 10L31 10L31 11L30 11L30 13L28 13L28 14L27 14L27 15L26 15L26 16L25 16L25 17L22 17L22 18L21 18L21 17L20 17L20 16L24 16L24 15L25 15L25 14L24 14L24 13L27 13L27 12L25 12L25 11L26 11L26 10L27 10L27 11L28 11L28 12L29 12L29 11L28 11L28 10L27 10L27 8L28 8L28 9L29 9L29 10L30 10L30 8L29 8L29 2L28 2L28 1L29 1L29 0L28 0L28 1L27 1L27 2L26 2L26 3L25 3L25 2L24 2L24 3L23 3L23 2L20 2L20 4L18 4L18 3L19 3L19 1L16 1L16 0ZM20 0L20 1L26 1L26 0ZM8 1L8 2L9 2L9 1ZM14 2L14 3L15 3L15 2ZM16 2L16 4L17 4L17 3L18 3L18 2ZM27 2L27 3L28 3L28 2ZM21 3L21 4L23 4L23 3ZM24 3L24 4L25 4L25 3ZM26 4L26 6L25 6L25 8L26 8L26 6L27 6L27 7L28 7L28 6L27 6L27 4ZM23 5L23 7L24 7L24 5ZM9 6L9 7L10 7L10 6ZM11 6L11 7L12 7L12 6ZM14 6L14 8L15 8L15 6ZM21 6L21 7L22 7L22 6ZM10 8L10 9L9 9L9 10L10 10L10 9L11 9L11 8ZM20 8L20 9L24 9L24 10L22 10L22 12L23 12L23 13L22 13L22 14L21 14L21 15L24 15L24 14L23 14L23 13L24 13L24 12L23 12L23 11L24 11L24 10L26 10L26 9L24 9L24 8ZM31 8L31 9L32 9L32 8ZM1 9L1 10L2 10L2 9ZM14 11L14 12L15 12L15 11ZM3 13L3 14L4 14L4 13ZM6 13L6 14L7 14L7 13ZM30 13L30 14L32 14L32 15L30 15L30 16L29 16L29 14L28 14L28 16L29 16L29 17L30 17L30 18L28 18L28 17L26 17L26 18L22 18L22 19L25 19L25 20L26 20L26 21L27 21L27 22L25 22L25 21L24 21L24 20L21 20L21 22L22 22L22 23L24 23L24 22L25 22L25 24L26 24L26 23L27 23L27 22L28 22L28 23L29 23L29 21L30 21L30 22L31 22L31 23L30 23L30 24L27 24L27 25L24 25L24 26L23 26L23 28L21 28L21 29L22 29L22 30L21 30L21 31L22 31L22 32L21 32L21 33L20 33L20 34L19 34L19 35L21 35L21 33L22 33L22 32L23 32L23 33L25 33L25 34L26 34L26 33L27 33L27 34L29 34L29 33L27 33L27 32L28 32L28 30L26 30L26 29L27 29L27 28L29 28L29 27L30 27L30 28L32 28L32 27L33 27L33 29L34 29L34 28L35 28L35 27L34 27L34 24L35 24L35 25L36 25L36 23L35 23L35 22L33 22L33 21L34 21L34 20L35 20L35 19L36 19L36 18L35 18L35 17L34 17L34 18L33 18L33 17L30 17L30 16L32 16L32 15L33 15L33 13ZM36 14L36 15L37 15L37 14ZM14 15L14 16L15 16L15 15ZM1 17L1 18L2 18L2 19L3 19L3 20L4 20L4 19L5 19L5 17L4 17L4 18L2 18L2 17ZM6 17L6 18L7 18L7 17ZM26 18L26 20L27 20L27 21L28 21L28 20L30 20L30 21L33 21L33 20L30 20L30 19L31 19L31 18L30 18L30 19L28 19L28 18ZM6 19L6 20L7 20L7 19ZM14 19L14 20L15 20L15 19ZM27 19L27 20L28 20L28 19ZM22 21L22 22L24 22L24 21ZM7 22L7 23L6 23L6 24L7 24L7 25L6 25L6 26L7 26L7 25L8 25L8 26L10 26L10 24L9 24L9 23L8 23L8 22ZM32 22L32 23L33 23L33 24L30 24L30 25L28 25L28 26L27 26L27 27L26 27L26 26L25 26L25 27L24 27L24 28L25 28L25 29L23 29L23 30L22 30L22 31L23 31L23 30L25 30L25 29L26 29L26 28L27 28L27 27L28 27L28 26L30 26L30 27L31 27L31 26L30 26L30 25L33 25L33 24L34 24L34 23L33 23L33 22ZM1 24L1 25L2 25L2 24ZM8 24L8 25L9 25L9 24ZM3 25L3 26L5 26L5 25ZM3 27L3 28L4 28L4 27ZM6 27L6 28L7 28L7 27ZM8 27L8 29L9 29L9 27ZM14 27L14 28L15 28L15 27ZM25 27L25 28L26 28L26 27ZM29 29L29 32L32 32L32 29ZM11 30L11 33L10 33L10 34L9 34L9 32L8 32L8 37L11 37L11 33L12 33L12 34L13 34L13 35L12 35L12 37L13 37L13 36L14 36L14 37L15 37L15 36L17 36L17 37L18 37L18 36L17 36L17 34L15 34L15 33L12 33L12 31L13 31L13 30ZM30 30L30 31L31 31L31 30ZM17 31L17 32L18 32L18 33L19 33L19 32L18 32L18 31ZM26 31L26 32L25 32L25 33L26 33L26 32L27 32L27 31ZM34 33L34 34L31 34L31 35L32 35L32 36L33 36L33 35L34 35L34 36L36 36L36 35L35 35L35 33ZM14 35L14 36L15 36L15 35ZM0 0L0 7L7 7L7 0ZM1 1L1 6L6 6L6 1ZM2 2L2 5L5 5L5 2ZM30 0L30 7L37 7L37 0ZM31 1L31 6L36 6L36 1ZM32 2L32 5L35 5L35 2ZM0 30L0 37L7 37L7 30ZM1 31L1 36L6 36L6 31ZM2 32L2 35L5 35L5 32Z" fill="#000000"/></g></g></svg>
